HIERARCHY
ROOT SpineBase
{
  OFFSET 0.000000 0.000000 0.000000
  CHANNELS 6 Xposition Yposition Zposition Zrotation Xrotation Yrotation
  JOINT SpineMid
  {
    OFFSET 0.000000 28.511036 0.000000
    CHANNELS 3 Zrotation Xrotation Yrotation
    JOINT SpineShoulder
    {
      OFFSET -0.116086 21.243940 -0.632046
      CHANNELS 3 Zrotation Xrotation Yrotation
      JOINT Neck
      {
        OFFSET -0.072842 7.057644 -0.499467
        CHANNELS 3 Zrotation Xrotation Yrotation
        JOINT Head
        {
          OFFSET -2.456058 11.545725 -0.089317
          CHANNELS 3 Zrotation Xrotation Yrotation
          End Site
          {
            OFFSET 0 0 0
          }
        }
      }
      JOINT ShoulderLeft
      {
        OFFSET -16.513422 -1.679124 6.230033
        CHANNELS 3 Zrotation Xrotation Yrotation
        JOINT ElbowLeft
        {
          OFFSET -3.390008 -24.679312 3.566010
          CHANNELS 3 Zrotation Xrotation Yrotation
          JOINT WristLeft
          {
            OFFSET -4.612452 -20.275439 -3.472768
            CHANNELS 3 Zrotation Xrotation Yrotation
            JOINT HandLeft
            {
              OFFSET -0.801968 -6.794645 -3.093422
              CHANNELS 3 Zrotation Xrotation Yrotation
              JOINT HandTipLeft
              {
                OFFSET -0.086829 -6.399793 -1.828962
                CHANNELS 3 Zrotation Xrotation Yrotation
                End Site
                {
                  OFFSET 0 0 0
                }
              }
              JOINT ThumbLeft
              {
                OFFSET 2.022520 -2.347239 -2.615102
                CHANNELS 3 Zrotation Xrotation Yrotation
                End Site
                {
                  OFFSET 0 0 0
                }
              }
            }
          }
        }
      }
      JOINT ShoulderRight
      {
        OFFSET 15.434594 -0.831411 -4.979868
        CHANNELS 3 Zrotation Xrotation Yrotation
        JOINT ElbowRight
        {
          OFFSET 5.158731 -24.376230 -3.349421
          CHANNELS 3 Zrotation Xrotation Yrotation
          JOINT WristRight
          {
            OFFSET -1.048294 -19.569307 -5.011870
            CHANNELS 3 Zrotation Xrotation Yrotation
            JOINT HandRight
            {
              OFFSET -2.825415 -7.440344 -2.928906
              CHANNELS 3 Zrotation Xrotation Yrotation
              JOINT HandTipRight
              {
                OFFSET -0.964032 -6.452708 -3.473512
                CHANNELS 3 Zrotation Xrotation Yrotation
                End Site
                {
                  OFFSET 0 0 0
                }
              }
              JOINT ThumbRight
              {
                OFFSET -2.992185 -0.158150 -1.896882
                CHANNELS 3 Zrotation Xrotation Yrotation
                End Site
                {
                  OFFSET 0 0 0
                }
              }
            }
          }
        }
      }
    }
  }
  JOINT HipLeft
  {
    OFFSET -7.329874 0.741176 -1.853408
    CHANNELS 3 Zrotation Xrotation Yrotation
    JOINT KneeLeft
    {
      OFFSET -7.074735 -30.630533 0.316344
      CHANNELS 3 Zrotation Xrotation Yrotation
      JOINT AnkleLeft
      {
        OFFSET -0.855472 -34.873769 3.344537
        CHANNELS 3 Zrotation Xrotation Yrotation
        JOINT FootLeft
        {
          OFFSET -2.860088 -3.929769 -11.176535
          CHANNELS 3 Zrotation Xrotation Yrotation
          End Site
          {
            OFFSET 0 0 0
          }
        }
      }
    }
  }
  JOINT HipRight
  {
    OFFSET 6.670730 1.052718 -4.859604
    CHANNELS 3 Zrotation Xrotation Yrotation
    JOINT KneeRight
    {
      OFFSET 2.995049 -27.415639 -1.331044
      CHANNELS 3 Zrotation Xrotation Yrotation
      JOINT AnkleRight
      {
        OFFSET 0.769167 -37.775330 4.829477
        CHANNELS 3 Zrotation Xrotation Yrotation
        JOINT FootRight
        {
          OFFSET -2.660068 -8.254210 -4.019234
          CHANNELS 3 Zrotation Xrotation Yrotation
          End Site
          {
            OFFSET 0 0 0
          }
        }
      }
    }
  }
}
MOTION
Frames: 14
Frame Time: 0.033333
29.357730 66.405535 372.730781 21.650603 -10.924492 -6.915881 -0.678810 -1.552623 9.907166 -0.020870 -0.360301 0.839588 -35.751635 17.770494 6.240535 0.000000 0.000000 0.000000 -12.711944 10.537614 0.956970 11.197621 -5.209236 -2.490398 -42.518636 -22.403347 15.676038 7.826351 -15.500121 -16.821555 0.000000 0.000000 0.000000 0.000000 0.000000 0.000000 10.352150 4.379927 -9.521016 -10.603575 2.772841 0.529781 2.257839 -7.969179 2.292039 -2.605048 -9.794028 -1.046732 0.000000 0.000000 0.000000 0.000000 0.000000 0.000000 -24.998027 17.760665 8.554006 -51.878718 -19.906293 -16.876114 76.467603 42.818326 -61.186687 0.000000 0.000000 0.000000 -87.859265 48.607241 55.159152 51.111415 -76.865600 24.229660 13.085093 59.704090 -22.241358 0.000000 0.000000 0.000000
29.955616 66.212094 373.063541 22.013509 -12.143976 -7.210046 -0.718394 -1.710852 10.524285 0.030949 -0.033105 0.783506 -65.765476 20.557358 18.029150 0.000000 0.000000 0.000000 -13.549900 11.698107 1.058793 11.106698 -5.809695 -2.063775 -43.568104 -21.298800 16.386706 11.965238 -8.733111 -16.701656 0.000000 0.000000 0.000000 0.000000 0.000000 0.000000 11.718379 4.360179 -10.294989 -13.545690 4.045437 1.211560 1.108871 -8.184879 2.688733 -1.846691 -11.118730 -0.788438 0.000000 0.000000 0.000000 0.000000 0.000000 0.000000 -26.445883 19.680620 9.345928 -51.537360 -19.315564 -16.911840 76.886699 43.490598 -60.854004 0.000000 0.000000 0.000000 -85.345335 46.423416 52.461496 44.186051 -73.937430 17.284361 13.825064 59.434042 -22.636061 0.000000 0.000000 0.000000
30.481905 65.967714 373.404521 22.123833 -13.329084 -7.049046 -0.784696 -1.729995 10.622668 0.020130 0.362113 0.708705 -80.489392 19.670503 24.345881 0.000000 0.000000 0.000000 -13.111935 13.194296 0.935218 8.483382 -5.925810 -1.714619 -36.060389 -26.378267 13.877518 11.760294 5.820915 -13.660392 0.000000 0.000000 0.000000 0.000000 0.000000 0.000000 13.135854 3.889704 -10.930739 -16.386839 5.342654 2.020068 2.125382 -9.624394 3.168511 -1.345025 -8.026766 -2.533993 0.000000 0.000000 0.000000 0.000000 0.000000 0.000000 -29.280812 19.777777 10.463256 -47.249331 -17.695358 -15.086674 76.798867 43.827672 -62.324723 0.000000 0.000000 0.000000 -83.141276 44.720433 50.262319 40.373402 -70.962236 13.323758 13.934757 59.123071 -22.581542 0.000000 0.000000 0.000000
30.865891 65.708346 373.683663 22.088224 -14.353810 -6.274885 -0.761837 -1.688650 10.038416 0.017861 0.697413 0.644341 -87.280478 19.105649 27.775719 0.000000 0.000000 0.000000 -13.327880 14.839375 0.808031 6.158635 -5.550818 -1.452947 -29.603182 -29.047344 11.736527 10.333488 16.168366 -11.044751 0.000000 0.000000 0.000000 0.000000 0.000000 0.000000 15.319254 2.849241 -11.712037 -20.123439 6.234180 3.261413 8.201098 -11.421812 2.404818 -1.321310 -7.310762 -3.820584 0.000000 0.000000 0.000000 0.000000 0.000000 0.000000 -30.297941 21.962151 10.336225 -46.260278 -18.356487 -15.398785 77.843227 42.552955 -65.119779 0.000000 0.000000 0.000000 -81.198535 43.285998 48.066727 39.212673 -67.362058 11.538600 13.156981 58.440490 -21.999583 0.000000 0.000000 0.000000
31.013934 65.423043 373.949352 21.739254 -15.148252 -5.570917 -0.684660 -1.461154 9.381506 -0.068305 0.926314 0.600979 -88.126078 19.409278 28.914965 0.000000 0.000000 0.000000 -13.496334 16.385587 0.637520 4.166730 -5.213464 -1.200153 -24.397234 -30.098312 10.065408 9.611954 20.153038 -10.021338 0.000000 0.000000 0.000000 0.000000 0.000000 0.000000 17.194307 1.632370 -12.201444 -22.372387 6.648192 4.203639 14.135196 -14.200831 2.690713 -6.030811 -0.851255 -4.619116 0.000000 0.000000 0.000000 0.000000 0.000000 0.000000 -30.167578 24.318072 9.890312 -47.336784 -19.308495 -16.504298 83.255342 42.480529 -72.783193 0.000000 0.000000 0.000000 -80.302366 42.306888 46.997145 40.546643 -65.357043 11.878664 11.930763 58.422464 -21.253857 0.000000 0.000000 0.000000
30.959893 65.116097 374.212718 21.265172 -15.699074 -5.536819 -0.414992 -1.182887 9.295817 -0.185066 0.912153 0.606274 -87.276429 20.708863 29.978908 0.000000 0.000000 0.000000 -14.056717 17.900036 0.534406 3.619196 -4.354955 -1.234028 -23.423766 -34.998220 9.688303 13.035132 26.098091 -12.291467 0.000000 0.000000 0.000000 0.000000 0.000000 0.000000 18.896479 0.335855 -12.613341 -23.758475 6.644432 4.988069 21.227581 -20.355092 6.301284 -8.352617 6.446746 -8.972845 0.000000 0.000000 0.000000 0.000000 0.000000 0.000000 -29.669294 25.480658 9.920450 -49.688325 -19.204444 -17.542174 91.840697 41.839940 -83.673641 0.000000 0.000000 0.000000 -80.950421 41.837375 47.690433 42.782360 -64.861383 13.242067 10.607145 58.165776 -20.333268 0.000000 0.000000 0.000000
30.916018 64.827976 374.574270 21.008539 -16.516908 -6.022175 -0.141140 -0.995904 9.829735 -0.310428 0.622286 0.662893 -82.560747 23.283140 30.157250 0.000000 0.000000 0.000000 -14.977176 19.916097 0.595297 4.059579 -3.583172 -1.300612 -24.513874 -37.695155 9.564020 17.921870 28.961894 -15.620250 0.000000 0.000000 0.000000 0.000000 0.000000 0.000000 19.831336 -1.103212 -13.074163 -25.085631 7.705707 6.005365 24.303897 -24.793751 10.347367 -4.123930 9.315956 -16.714100 0.000000 0.000000 0.000000 0.000000 0.000000 0.000000 -29.464815 26.628445 10.556089 -53.267338 -17.759191 -18.500070 101.629358 40.189875 -94.457269 0.000000 0.000000 0.000000 -84.134824 43.176151 51.668505 44.070920 -67.452447 14.845882 9.920979 57.654866 -19.249802 0.000000 0.000000 0.000000
30.867289 64.685387 374.858003 20.934416 -17.004804 -6.284703 -0.001135 -0.733624 10.105833 -0.368315 0.443782 0.699751 -82.352793 23.996407 30.865605 0.000000 0.000000 0.000000 -15.776067 21.626270 0.565992 4.552293 -3.967252 -1.093251 -26.646415 -37.554215 9.611558 20.710230 28.934741 -17.109703 0.000000 0.000000 0.000000 0.000000 0.000000 0.000000 19.754811 -1.298281 -13.207482 -25.230810 7.878073 6.292805 26.228980 -27.747139 13.416322 -4.787391 7.358118 -16.754580 0.000000 0.000000 0.000000 0.000000 0.000000 0.000000 -29.164185 27.593317 10.798159 -57.281913 -16.005932 -19.474051 110.134893 37.094553 -103.553836 0.000000 0.000000 0.000000 -85.123827 43.136672 52.847627 44.710065 -67.684085 15.409524 10.052681 57.364845 -19.367761 0.000000 0.000000 0.000000
30.796978 64.721803 375.104377 21.014513 -16.964240 -5.984365 -0.138279 -0.021894 9.688587 -0.495966 0.255115 0.745601 -85.484798 22.789242 31.389766 0.000000 0.000000 0.000000 -16.223094 22.594414 0.329746 5.545244 -5.656475 -0.588433 -30.422270 -33.896283 10.262529 22.358598 24.440718 -17.437550 0.000000 0.000000 0.000000 0.000000 0.000000 0.000000 20.586206 -2.659136 -13.043696 -25.970226 8.272027 6.634587 25.031954 -28.623591 14.806210 -0.825808 7.252943 -21.426328 0.000000 0.000000 0.000000 0.000000 0.000000 0.000000 -28.678309 28.304000 10.259930 -61.282932 -13.316768 -19.960002 113.717726 30.028271 -108.208721 0.000000 0.000000 0.000000 -86.238773 44.987863 54.556474 43.995195 -70.291104 15.612558 9.496987 57.977269 -18.413590 0.000000 0.000000 0.000000
30.747701 64.913216 375.311071 20.912919 -17.073915 -4.859497 -0.200435 0.174966 8.534572 -0.445410 0.140118 0.754679 -87.722535 22.424988 32.474982 0.000000 0.000000 0.000000 -15.966351 23.653325 0.111406 4.151330 -6.576638 -0.299109 -30.534590 -30.613944 10.349515 20.564677 19.325524 -15.930667 0.000000 0.000000 0.000000 0.000000 0.000000 0.000000 20.276504 -3.243461 -12.891249 -25.612338 9.139385 6.659086 21.223816 -30.653201 17.775616 2.284471 10.634007 -25.355345 0.000000 0.000000 0.000000 0.000000 0.000000 0.000000 -27.676401 29.467143 8.944091 -63.873079 -10.344644 -19.565009 114.588321 24.411645 -109.002992 0.000000 0.000000 0.000000 -85.088364 46.002752 53.687243 41.981729 -69.708972 13.908302 9.131520 57.857300 -17.849616 0.000000 0.000000 0.000000
30.867447 65.247718 375.478008 21.139479 -17.045487 -4.413761 -0.310720 0.278263 8.117092 -0.485638 0.075125 0.773734 -91.508541 21.344619 33.736852 0.000000 0.000000 0.000000 -16.196301 24.639555 -0.038579 4.179937 -8.779894 0.347832 -32.891664 -24.630560 11.534659 24.067488 13.863925 -17.134505 0.000000 0.000000 0.000000 0.000000 0.000000 0.000000 19.150851 -3.372211 -12.578301 -24.611555 9.789376 6.435740 15.997766 -30.997076 18.659446 5.807851 10.943276 -27.365071 0.000000 0.000000 0.000000 0.000000 0.000000 0.000000 -27.946436 29.350365 8.666519 -64.104466 -6.922609 -17.752610 113.853663 17.179770 -110.328114 0.000000 0.000000 0.000000 -82.513682 44.639456 50.502572 39.593890 -66.334065 11.231500 8.864551 57.117365 -17.502446 0.000000 0.000000 0.000000
30.772539 65.356358 375.524500 20.932838 -16.789023 -4.828377 -0.176159 0.223211 8.443655 -0.420291 -0.007601 0.780024 -95.339501 19.829722 34.605917 0.000000 0.000000 0.000000 -16.351910 25.337210 -0.158046 4.210088 -10.326710 0.807301 -33.736756 -20.807885 12.248934 26.146983 12.686643 -17.300555 0.000000 0.000000 0.000000 0.000000 0.000000 0.000000 18.365250 -3.992217 -12.278649 -24.597994 10.830955 6.654434 10.295453 -31.744367 19.581097 11.383577 9.279327 -31.042714 0.000000 0.000000 0.000000 0.000000 0.000000 0.000000 -26.727869 28.680333 8.596291 -66.936722 -3.557300 -16.483267 111.419386 10.219659 -106.388755 0.000000 0.000000 0.000000 -80.051179 40.659203 46.659643 42.516063 -60.814255 12.052063 6.961212 56.046828 -17.009104 0.000000 0.000000 0.000000
30.603783 65.187429 375.452651 20.519793 -16.346484 -6.187199 -0.019991 0.015328 9.672910 -0.266991 -0.022999 0.760921 -97.769169 18.860638 35.064438 0.000000 0.000000 0.000000 -16.523632 25.655624 -0.225557 4.624427 -10.215920 0.804396 -35.204802 -21.363177 12.443166 29.526545 14.573361 -18.680805 0.000000 0.000000 0.000000 0.000000 0.000000 0.000000 17.307837 -3.890442 -11.924588 -23.324214 11.340202 6.203505 3.624026 -30.253189 18.647286 17.465510 8.629882 -34.019333 0.000000 0.000000 0.000000 0.000000 0.000000 0.000000 -25.750366 27.077492 9.474157 -69.987833 -0.041451 -14.822971 106.676718 0.647145 -97.605456 0.000000 0.000000 0.000000 -77.619428 35.705261 43.129009 44.585321 -55.045688 12.024359 5.162874 54.854362 -16.625309 0.000000 0.000000 0.000000
30.527057 65.049682 375.262643 20.367118 -15.752666 -6.912390 0.043457 -0.272410 10.315209 -0.099191 0.006179 0.740553 -99.759943 18.053095 35.190191 0.000000 0.000000 0.000000 -16.645709 25.687198 -0.314925 2.751171 -10.466319 0.868211 -30.086074 -19.814817 11.169647 23.878916 16.149554 -15.345020 0.000000 0.000000 0.000000 0.000000 0.000000 0.000000 16.060111 -4.048239 -11.492990 -21.707302 11.592791 5.725317 -7.802247 -24.513034 15.979819 25.147174 2.104207 -33.376781 0.000000 0.000000 0.000000 0.000000 0.000000 0.000000 -24.755951 25.805340 9.709621 -73.043358 2.827136 -13.446953 100.135143 -12.883985 -81.698206 0.000000 0.000000 0.000000 -74.837937 30.688686 38.931317 45.327315 -48.287965 10.728126 3.670293 55.347001 -16.837197 0.000000 0.000000 0.000000
